<svg xmlns="http://www.w3.org/2000/svg" viewBox="0 0 120 90" shape-rendering="crispEdges">
  <!-- Ilustração pixel-art própria: trilha de fases do DataQuest -->

  <!-- trilha de blocos ligando as fases -->
  <g fill="#4c1d95">
    <rect x="22" y="76" width="3" height="3"/>
    <rect x="28" y="72" width="3" height="3"/>
    <rect x="34" y="68" width="3" height="3"/>
    <rect x="40" y="64" width="3" height="3"/>
    <rect x="58" y="58" width="3" height="3"/>
    <rect x="64" y="54" width="3" height="3"/>
    <rect x="70" y="50" width="3" height="3"/>
    <rect x="88" y="40" width="3" height="3"/>
    <rect x="93" y="34" width="3" height="3"/>
    <rect x="98" y="28" width="3" height="3"/>
  </g>

  <!-- fase 1: concluída (verde) -->
  <g>
    <rect x="6" y="70" width="16" height="16" fill="#059669"/>
    <rect x="6" y="70" width="16" height="2" fill="#34d399"/>
    <rect x="6" y="84" width="16" height="2" fill="#065f46"/>
    <rect x="10" y="77" width="2" height="2" fill="#ecfdf5"/>
    <rect x="12" y="79" width="2" height="2" fill="#ecfdf5"/>
    <rect x="14" y="77" width="2" height="2" fill="#ecfdf5"/>
    <rect x="16" y="75" width="2" height="2" fill="#ecfdf5"/>
  </g>

  <!-- fase 2: concluída (verde) -->
  <g>
    <rect x="42" y="52" width="16" height="16" fill="#059669"/>
    <rect x="42" y="52" width="16" height="2" fill="#34d399"/>
    <rect x="42" y="66" width="16" height="2" fill="#065f46"/>
    <rect x="46" y="59" width="2" height="2" fill="#ecfdf5"/>
    <rect x="48" y="61" width="2" height="2" fill="#ecfdf5"/>
    <rect x="50" y="59" width="2" height="2" fill="#ecfdf5"/>
    <rect x="52" y="57" width="2" height="2" fill="#ecfdf5"/>
  </g>

  <!-- fase 3: atual (indigo, pulsa via CSS .hero-atual) -->
  <g class="hero-atual">
    <rect x="72" y="36" width="18" height="18" fill="#6366f1"/>
    <rect x="72" y="36" width="18" height="2" fill="#a5b4fc"/>
    <rect x="72" y="52" width="18" height="2" fill="#4338ca"/>
    <rect x="78" y="41" width="2" height="8" fill="#eef2ff"/>
    <rect x="80" y="43" width="2" height="4" fill="#eef2ff"/>
    <rect x="82" y="44" width="2" height="2" fill="#eef2ff"/>
  </g>

  <!-- fase 4: bloqueada (cadeado) -->
  <g>
    <rect x="98" y="8" width="16" height="16" fill="#1e293b"/>
    <rect x="98" y="8" width="16" height="2" fill="#334155"/>
    <rect x="103" y="13" width="6" height="1" fill="#64748b"/>
    <rect x="103" y="12" width="1" height="2" fill="#64748b"/>
    <rect x="108" y="12" width="1" height="2" fill="#64748b"/>
    <rect x="102" y="15" width="8" height="5" fill="#475569"/>
    <rect x="105" y="16" width="2" height="2" fill="#0f172a"/>
  </g>

  <!-- lista ligada flutuando: [42|•] -> [17|Ø] -->
  <g class="hero-flutua-1">
    <rect x="8" y="14" width="14" height="10" fill="#1e1b4b"/>
    <rect x="8" y="14" width="14" height="1" fill="#6366f1"/>
    <rect x="8" y="23" width="14" height="1" fill="#6366f1"/>
    <rect x="8" y="14" width="1" height="10" fill="#6366f1"/>
    <rect x="17" y="14" width="1" height="10" fill="#6366f1"/>
    <rect x="21" y="14" width="1" height="10" fill="#6366f1"/>
    <rect x="11" y="17" width="1" height="4" fill="#c7d2fe"/>
    <rect x="13" y="17" width="2" height="1" fill="#c7d2fe"/>
    <rect x="14" y="18" width="1" height="1" fill="#c7d2fe"/>
    <rect x="13" y="19" width="1" height="1" fill="#c7d2fe"/>
    <rect x="13" y="20" width="2" height="1" fill="#c7d2fe"/>
    <rect x="19" y="18" width="1" height="2" fill="#a5b4fc"/>
    <rect x="22" y="18" width="6" height="2" fill="#6366f1"/>
    <rect x="27" y="16" width="2" height="2" fill="#6366f1"/>
    <rect x="27" y="20" width="2" height="2" fill="#6366f1"/>
  </g>
  <g class="hero-flutua-2">
    <rect x="31" y="14" width="14" height="10" fill="#1e1b4b"/>
    <rect x="31" y="14" width="14" height="1" fill="#6366f1"/>
    <rect x="31" y="23" width="14" height="1" fill="#6366f1"/>
    <rect x="31" y="14" width="1" height="10" fill="#6366f1"/>
    <rect x="40" y="14" width="1" height="10" fill="#6366f1"/>
    <rect x="44" y="14" width="1" height="10" fill="#6366f1"/>
    <rect x="34" y="17" width="1" height="4" fill="#c7d2fe"/>
    <rect x="36" y="17" width="2" height="1" fill="#c7d2fe"/>
    <rect x="37" y="18" width="1" height="3" fill="#c7d2fe"/>
    <rect x="36" y="20" width="1" height="1" fill="#c7d2fe"/>
    <rect x="42" y="18" width="1" height="2" fill="#f87171"/>
  </g>

  <!-- estrelas -->
  <g class="hero-flutua-3" fill="#fbbf24">
    <rect x="62" y="10" width="2" height="2"/>
    <rect x="60" y="12" width="2" height="2"/>
    <rect x="64" y="12" width="2" height="2"/>
    <rect x="62" y="14" width="2" height="2"/>
    <rect x="90" y="64" width="2" height="2" opacity="0.7"/>
    <rect x="30" y="40" width="2" height="2" opacity="0.5"/>
    <rect x="108" y="46" width="2" height="2" opacity="0.6"/>
  </g>
</svg>
